<mxfile host="65bd71144e">
    <diagram id="fHe_8uKbHzjOx5UuiTHo" name="Página-1">
        <mxGraphModel dx="837" dy="585" grid="1" gridSize="10" guides="1" tooltips="1" connect="1" arrows="1" fold="1" page="1" pageScale="1" pageWidth="827" pageHeight="1169" math="0" shadow="0">
            <root>
                <mxCell id="0"/>
                <mxCell id="1" parent="0"/>
                <mxCell id="2" value="&lt;h1&gt;Extrutura Inicial&lt;/h1&gt;&lt;p&gt;Inicialmente o projeto conta com cinco arquivos cada qual responsável por uma distinta fuuncionalidade do sistema&lt;/p&gt;" style="text;html=1;strokeColor=none;fillColor=none;spacing=5;spacingTop=-20;whiteSpace=wrap;overflow=hidden;rounded=0;" parent="1" vertex="1">
                    <mxGeometry x="32" y="33" width="190" height="120" as="geometry"/>
                </mxCell>
                <mxCell id="15" style="edgeStyle=none;html=1;exitX=0.5;exitY=0;exitDx=0;exitDy=0;entryX=-0.007;entryY=0.434;entryDx=0;entryDy=0;entryPerimeter=0;endArrow=classic;endFill=1;strokeWidth=2;startArrow=classicThin;startFill=1;" parent="1" source="3" target="9" edge="1">
                    <mxGeometry relative="1" as="geometry">
                        <mxPoint x="302" y="180" as="targetPoint"/>
                        <Array as="points">
                            <mxPoint x="302" y="155"/>
                        </Array>
                    </mxGeometry>
                </mxCell>
                <mxCell id="3" value="botSinais.py" style="swimlane;" parent="1" vertex="1">
                    <mxGeometry x="187" y="270" width="230" height="100" as="geometry"/>
                </mxCell>
                <mxCell id="4" value="Responsavel por conectar a API &lt;br&gt;com o sistema&lt;br&gt;Lê os registros de dados salvos&amp;nbsp;" style="text;html=1;align=center;verticalAlign=middle;resizable=0;points=[];autosize=1;strokeColor=none;fillColor=none;" parent="3" vertex="1">
                    <mxGeometry x="20" y="30" width="190" height="50" as="geometry"/>
                </mxCell>
                <mxCell id="16" style="edgeStyle=none;html=1;exitX=0.5;exitY=0;exitDx=0;exitDy=0;entryX=1.001;entryY=0.386;entryDx=0;entryDy=0;entryPerimeter=0;startArrow=none;startFill=0;endArrow=classic;endFill=1;strokeWidth=2;" parent="1" source="6" target="9" edge="1">
                    <mxGeometry relative="1" as="geometry">
                        <Array as="points">
                            <mxPoint x="647" y="151"/>
                        </Array>
                    </mxGeometry>
                </mxCell>
                <mxCell id="6" value="Opal.kv" style="swimlane;" parent="1" vertex="1">
                    <mxGeometry x="547" y="270" width="200" height="130" as="geometry"/>
                </mxCell>
                <mxCell id="7" value="Responsavel por modelar&lt;br&gt;as telas do sistema,&lt;br&gt;contem as chamadas de metodos&lt;br&gt;que seram acionados pelos&amp;nbsp;&lt;br&gt;botões da interface" style="text;html=1;align=center;verticalAlign=middle;resizable=0;points=[];autosize=1;strokeColor=none;fillColor=none;" parent="6" vertex="1">
                    <mxGeometry y="42" width="200" height="80" as="geometry"/>
                </mxCell>
                <mxCell id="8" value="opal.py" style="swimlane;" parent="1" vertex="1">
                    <mxGeometry x="387" y="80" width="200" height="147" as="geometry"/>
                </mxCell>
                <mxCell id="9" value="Responsável por toda a lógica&lt;br&gt;de funcionamento.&lt;br&gt;Contem os métodos que&amp;nbsp;&lt;br&gt;processão as informações&amp;nbsp;&lt;br&gt;recebidas da interface ou&amp;nbsp;&lt;br&gt;da API e exibe para o usuário&lt;br&gt;ou executa uma determinada rotina" style="text;html=1;align=center;verticalAlign=middle;resizable=0;points=[];autosize=1;strokeColor=none;fillColor=none;" parent="8" vertex="1">
                    <mxGeometry y="32" width="200" height="100" as="geometry"/>
                </mxCell>
                <mxCell id="17" style="edgeStyle=orthogonalEdgeStyle;html=1;exitX=0.5;exitY=0;exitDx=0;exitDy=0;entryX=0.25;entryY=1;entryDx=0;entryDy=0;startArrow=classicThin;startFill=1;endArrow=classic;endFill=1;strokeWidth=2;" parent="1" source="10" target="3" edge="1">
                    <mxGeometry relative="1" as="geometry"/>
                </mxCell>
                <mxCell id="10" value="sinais.json" style="swimlane;" parent="1" vertex="1">
                    <mxGeometry x="57" y="450" width="200" height="147" as="geometry"/>
                </mxCell>
                <mxCell id="11" value="Lista que armazena os dados&amp;nbsp;&lt;br&gt;dos sinais cadastrados&amp;nbsp;&lt;br&gt;pelo usuário&amp;nbsp;" style="text;html=1;align=center;verticalAlign=middle;resizable=0;points=[];autosize=1;strokeColor=none;fillColor=none;" parent="10" vertex="1">
                    <mxGeometry x="10" y="57" width="180" height="50" as="geometry"/>
                </mxCell>
                <mxCell id="18" style="edgeStyle=orthogonalEdgeStyle;html=1;exitX=0.5;exitY=0;exitDx=0;exitDy=0;entryX=0.5;entryY=1;entryDx=0;entryDy=0;startArrow=classicThin;startFill=1;endArrow=classic;endFill=1;strokeWidth=2;" parent="1" source="12" target="3" edge="1">
                    <mxGeometry relative="1" as="geometry"/>
                </mxCell>
                <mxCell id="12" value="agenda.json" style="swimlane;" parent="1" vertex="1">
                    <mxGeometry x="199.5" y="630" width="205" height="147" as="geometry"/>
                </mxCell>
                <mxCell id="13" value="Lista que armazena os dados&amp;nbsp;&lt;br&gt;dos sinais que estão agendados&amp;nbsp;" style="text;html=1;align=center;verticalAlign=middle;resizable=0;points=[];autosize=1;strokeColor=none;fillColor=none;" parent="12" vertex="1">
                    <mxGeometry x="5" y="67" width="190" height="30" as="geometry"/>
                </mxCell>
                <mxCell id="22" style="edgeStyle=orthogonalEdgeStyle;html=1;exitX=0.5;exitY=0;exitDx=0;exitDy=0;entryX=0.75;entryY=1;entryDx=0;entryDy=0;startArrow=classicThin;startFill=1;endArrow=classic;endFill=1;strokeWidth=2;" parent="1" source="20" target="3" edge="1">
                    <mxGeometry relative="1" as="geometry"/>
                </mxCell>
                <mxCell id="20" value="API" style="swimlane;" parent="1" vertex="1">
                    <mxGeometry x="339.5" y="449" width="205" height="147" as="geometry"/>
                </mxCell>
                <mxCell id="21" value="Responsável por comunicar&lt;br&gt;o sistema com a plataforma de&lt;br&gt;negocialção" style="text;html=1;align=center;verticalAlign=middle;resizable=0;points=[];autosize=1;strokeColor=none;fillColor=none;" parent="20" vertex="1">
                    <mxGeometry x="10" y="57" width="180" height="50" as="geometry"/>
                </mxCell>
            </root>
        </mxGraphModel>
    </diagram>
</mxfile>